<svg version="1.2" xmlns="http://www.w3.org/2000/svg" viewBox="0 0 1000 1000" width="1000" height="1000">
	<title>3812202-ai</title>
	<style>
		.s0 { fill: #cdb608 } 
		.s1 { opacity: .4;fill: #ffffff } 
		.s2 { fill: none;stroke: #263238;stroke-linecap: round;stroke-linejoin: round;stroke-width: 1.9 } 
		.s3 { fill: #ffffff} 
		.s4 { fill: #ffffff;stroke: #263238;stroke-linecap: round;stroke-linejoin: round;stroke-width: 1.9 } 
		.s5 { fill: none;stroke: #263238;stroke-linecap: round;stroke-linejoin: round;stroke-width: 3.8 } 
		.s6 { fill: #263238 } 
		.s7 { fill: none;stroke: #ffffff;stroke-linecap: round;stroke-linejoin: round;stroke-width: 1.9 } 
		.s8 { opacity: .6;fill: #ffffff } 
		.s9 { fill: #c6ff00 } 
		.s10 { fill: #263138 } 
		.s11 { fill: none;stroke: #ffffff;stroke-linecap: round;stroke-linejoin: round;stroke-width: 3.8 } 
	</style>
	<g id="Background Simple">
		<g id="&lt;Group&gt;">
			<path id="&lt;Path&gt;" class="s0" d="m739.9 242.9q-4.3-1.2-8.7-2.2c-38.6-9-78.4-10.2-117.8-9.5-36.1 0.7-74.5 8.6-110-0.3-24.4-6.1-46-20.4-65.1-36.8-22.4-19.2-42.3-41.8-68.1-56.2-64.3-35.8-128.8-13.5-176.8 31q-0.1 0.1-0.2 0.2-4.6 4.2-9 8.7-0.1 0.1-0.2 0.2c-27.9 28.8-49.2 65-60.3 100.5-5.5 17.5-9.9 35.3-13.3 53.1q0 0.1 0 0.2-1.1 5.5-1.9 11-0.1 0.1-0.1 0.2c-26.4 163.2 36.2 331.9 189.9 411.8 73.6 38.3 160.5 71.4 245.4 65.1 54.3-3.9 104.1-29.4 147-61.7 92.4-69.7 164.7-174.1 185.9-289 19.5-105.8-31.1-197.8-136.7-226.3z"/>
			<path id="&lt;Path&gt;" class="s1" d="m739.9 242.9q-4.3-1.2-8.7-2.2c-38.6-9-78.4-10.2-117.8-9.5-36.1 0.7-74.5 8.6-110-0.3-24.4-6.1-46-20.4-65.1-36.8-22.4-19.2-42.3-41.8-68.1-56.2-64.3-35.8-128.8-13.5-176.8 31q-0.1 0.1-0.2 0.2-4.6 4.2-9 8.7-0.1 0.1-0.2 0.2c-27.9 28.8-49.2 65-60.3 100.5-5.5 17.5-9.9 35.3-13.3 53.1q0 0.1 0 0.2-1.1 5.5-1.9 11-0.1 0.1-0.1 0.2c-26.4 163.2 36.2 331.9 189.9 411.8 73.6 38.3 160.5 71.4 245.4 65.1 54.3-3.9 104.1-29.4 147-61.7 92.4-69.7 164.7-174.1 185.9-289 19.5-105.8-31.1-197.8-136.7-226.3z"/>
		</g>
	</g>
	<g id="Table">
		<g id="Table line">
			<path id="&lt;Path&gt;" class="s2" d="m894.5 819.6h40.5"/>
			<path id="&lt;Path&gt;" class="s2" d="m575.4 819.6h44.9"/>
			<path id="&lt;Path&gt;" class="s2" d="m222.8 819.6h150.7"/>
			<path id="&lt;Path&gt;" class="s2" d="m164.2 819.6h34.2"/>
		</g>
	</g>
	<g id="Stars">
		<g id="Stars">
			<path id="&lt;Path&gt;" class="s3" d="m318.7 358.5c0 0 2.5 16.3-11.3 23.2 0 0 16.7 3.6 18.2 19.7 0 0 0.3-22 9.9-24.7 0 0-12.9-0.2-16.8-18.2z"/>
			<path id="&lt;Path&gt;" class="s3" d="m516.9 360.6c0 0-0.7 9.9-9.9 12.1 0 0 9.4 4.4 8 14.2 0 0 3.3-13 9.3-13.2 0 0-7.6-2-7.4-13.1z"/>
			<path id="&lt;Path&gt;" class="s3" d="m527.9 326.6c0 0-0.8 9.9-9.9 12.1 0 0 9.4 4.4 8 14.2 0 0 3.3-13 9.3-13.2 0 0-7.6-2-7.4-13.1z"/>
			<path id="&lt;Path&gt;" class="s3" d="m294.4 327.3c0 0-0.7 14.9-9.9 19.4 0 0 12.6 3 14.9 17.9 0 0-1.9-16.6 8.3-20.2 0 0-10.8-5.2-13.3-17.1z"/>
		</g>
	</g>
	<g id="Dish">
		<g id="Dish">
			<g id="&lt;Group&gt;">
				<path id="&lt;Path&gt;" class="s4" d="m885.3 834.9c0 16.3-58.9 29.5-131.5 29.5-72.7 0-131.6-13.2-131.6-29.5 0-16.3 58.9-29.4 131.6-29.4 72.6 0 131.5 13.1 131.5 29.4z"/>
				<path id="&lt;Path&gt;" class="s2" d="m869.8 829.5c0 13-51.6 23.6-115.3 23.6-63.7 0-115.3-10.6-115.3-23.6 0-13.1 51.6-23.7 115.3-23.7 63.7 0 115.3 10.6 115.3 23.7z"/>
			</g>
		</g>
	</g>
	<g id="Character">
		<g id="Character">
			<g id="&lt;Group&gt;">
				<g id="&lt;Group&gt;">
					<path id="&lt;Path&gt;" class="s3" d="m450.7 384.3l1.9 24.4v0.6q-2.2-0.3-5-0.3c-13.3-0.1-34 4.4-48.7 8-10.3 2.6-17.8 4.8-17.8 4.8l-2.2-8.8-8.4-33.1c-6.8-5.8-17.2-28.9-17.2-28.9-8.5-1.3-19-8.9-21.3-19.7-2.2-10.7 11-9.7 11-9.7l8.5-5.2 10.8-29.3c0 0-9.5-21.8 9.1-30.5 18.5-8.8 81.6 21.7 81.6 21.7l6.8 28.7c8.7 3.5-0.5 25-0.5 25 0 0 0.8 0.3 1.8 13 1 12.6-10.4 39.3-10.4 39.3z"/>
					<g id="&lt;Group&gt;">
						<path id="&lt;Path&gt;" class="s2" d="m429.6 316.3c2.8 10.6 12.7 18.2 12.3 21-0.4 3.5-4.8 8.2-8.7 8.3"/>
						<path id="&lt;Path&gt;" class="s5" d="m449 299.2c0 0-8.6-7.1-15.3 2"/>
						<path id="&lt;Path&gt;" class="s2" d="m399.4 352.9c0 0 4.4 11.5 21.9 11.1"/>
						<path id="&lt;Path&gt;" class="s5" d="m410.6 308.2c-6.3-3.9-15-3.6-19.7 5.1"/>
						<path id="&lt;Path&gt;" class="s6" d="m409.7 325c0.6 3.1-0.3 5.9-2 6.2-1.6 0.3-3.5-2-4.1-5.1-0.6-3.1 0.3-5.9 2-6.2 1.7-0.3 3.5 2 4.1 5.1z"/>
						<path id="&lt;Path&gt;" class="s6" d="m445.8 318c0.5 3.1-0.3 5.9-2 6.2-1.7 0.3-3.5-2-4.1-5.1-0.6-3.1 0.3-5.9 1.9-6.2 1.7-0.3 3.6 1.9 4.2 5.1z"/>
						<path id="&lt;Path&gt;" class="s2" d="m352.5 329.4c0 0-14.7-12.7-19.3-3.9-4.6 8.8 10.4 28.9 24.6 22.7"/>
						<path id="&lt;Path&gt;" class="s2" d="m450.9 281.8c0 0 1.2 36.7 5.2 44.8 4.1 8.2 7.6 12.2 3.3 33.5-4.3 21.3-20.6 46.2-38.1 47.8-17.5 1.7-57.2-24.8-68.6-57.9"/>
						<path id="&lt;Path&gt;" class="s6" d="m352.9 330.9c0 0 10.6-5.5 8.7-15-2-9.6-0.6-10.7 7-15.6 7.6-4.9 2.9-15-4.4-25-7.3-10 6.6-21.9 17.9-16.9 11.3 5 75.7 30.4 93 22.8 17.3-7.5 12.3-31.5-11-45 0 0-12.5-15-9.2-28.8 3.4-13.8-77.3-55.6-115.1 29.4 0 0-17.9 7.1-21.7 31.2-3.7 23.8 22.4 54.6 22.4 54.6 0 0 9.2 4.7 12.4 8.3z"/>
						<path id="&lt;Path&gt;" class="s7" d="m363.8 254.1c5.9-8 16.9-10.9 26.7-9.5 9.8 1.5 18.7 6.5 27.1 11.8 8.4 5.3 16.6 11.1 26 14.3 5.3 1.9 11.2 2.9 16.6 1.4 4.3-1.2 8.2-4.1 10.1-8.2"/>
						<path id="&lt;Path&gt;" class="s7" d="m347 247.6c-7.2 0.5-13.5 5.9-16.3 12.6-2.8 6.6-2.5 14.3-0.5 21.2 1.4 4.9 3.6 9.5 6 13.9"/>
					</g>
					<path id="&lt;Path&gt;" class="s2" d="m452.1 381c-1.2 4.1-1.2 8.4-1 12.6 0.3 5.2 0.7 9.6 1.7 14.8"/>
					<path id="&lt;Path&gt;" class="s2" d="m370.4 378.6c3.5 12.2 7.3 26.9 10.9 43.3"/>
					<path id="&lt;Path&gt;" class="s2" d="m453.2 313.5c0 0 3.3-8.9 9.5-4.9 6.2 3.9-3.7 23.9-3.7 23.9"/>
					<path id="&lt;Path&gt;" class="s6" d="m462.2 275.6c0 0 3.1 25.3-4.4 33.2l-5.7 1.8-3.1-33.5z"/>
				</g>
				<g id="&lt;Group&gt;">
					<path id="&lt;Path&gt;" class="s3" d="m314.4 244.1c0 0-20.3-1.5-39.9-24.8-19.6-23.3-3.8-39.7 6-48.4 9.9-8.8 33.9-32.8 43.9-43.9 10.1-11.2 30.3-25.5 53-21.7 22.8 3.7 44.9 17.3 66.7 23.7 21.7 6.3 43.2 30 46.4 45.4 3.2 15.4-3.7 39.6-11.6 45.4l-13.7-0.4 6.1 20.7c0 0-81.2-32.1-153.8 28.2l6.1-21.6z"/>
					<g id="&lt;Group&gt;">
						<path id="&lt;Path&gt;" class="s0" d="m351.7 216.5q-0.2 13.8 0.7 27.6l-33.7 25 8.2-40.6z"/>
						<path id="&lt;Path&gt;" class="s8" d="m351.7 216.5c-0.1 9.2 0.4 19.4 0.9 28.6l-33.9 24 8.2-40.6z"/>
					</g>
					<g id="&lt;Group&gt;">
						<path id="&lt;Path&gt;" class="s0" d="m355.7 105.7c3.1-1.2 6.9 0.2 9.1 2.8 2.2 2.6 3 6.2 3 9.6-0.1 11.1-8.4 20.5-17.4 26.9-9.1 6.4-19.4 11.1-27.4 18.9-9.1 8.8-14.4 21.3-14.4 34 0 12.6 5.3 25.1 14.3 34 0.9 0.8 1.8 1.7 2.7 2.6l-2.8 11.3c0 0-36.1-4.7-48.3-26.5-12.3-21.8-8.5-31.9 2.3-44.8 10.8-12.9 24.8-19.7 38.5-39.3 13.7-19.5 40.4-29.5 40.4-29.5z"/>
						<path id="&lt;Path&gt;" class="s8" d="m355.7 105.7c3.1-1.2 6.9 0.2 9.1 2.8 2.2 2.6 3 6.2 3 9.6-0.1 11.1-8.4 20.5-17.4 26.9-9.1 6.4-19.4 11.1-27.4 18.9-9.1 8.8-14.4 21.3-14.4 34 0 12.6 5.3 25.1 14.3 34 0.9 0.8 1.8 1.7 2.7 2.6l-2.8 11.3c0 0-36.1-4.7-48.3-26.5-12.3-21.8-8.5-31.9 2.3-44.8 10.8-12.9 24.8-19.7 38.5-39.3 13.7-19.5 40.4-29.5 40.4-29.5z"/>
					</g>
					<path id="&lt;Path&gt;" class="s2" d="m318.7 269.1c0 0 55.8-57.8 152.4-27.9l-11.9-32.8c0 0-67.1-18.4-132.3 20.1z"/>
					<path id="&lt;Path&gt;" class="s2" d="m465.6 226c6.9-1.1 20.3-8.7 23.3-15 3-6.3 3.7-13.4 3.6-20.4-0.2-9.9-2-20-6.7-28.7-10.4-19.1-32.2-28.5-52.4-36.5q-18.9-7.5-37.8-15c-7.7-3.1-15.5-6.2-23.7-6.7-16.3-1.1-31.7 8-43.7 19.2-11.9 11.2-21.5 24.7-33.6 35.7-5.9 5.4-12.3 10.1-17.8 15.9-5.5 5.8-10 12.9-10.8 20.9-1.1 11.4 5.6 22.3 13.8 30.2 8.2 7.9 16.4 17.2 42.9 20.4"/>
					<path id="&lt;Path&gt;" class="s2" d="m425.8 204c5.5-3.2 10.3-7.6 14.2-12.6"/>
					<path id="&lt;Path&gt;" class="s2" d="m345.5 218.6c-9.6-3.2-17.6-10.9-21.3-20.3"/>
					<path id="&lt;Path&gt;" class="s2" d="m352.5 121.5c-9-0.7-16.8 5.9-22.5 12.8-5.8 6.9-10.9 14.9-18.9 18.9"/>
				</g>
			</g>
			<path id="&lt;Compound Path&gt;" fill-rule="evenodd" class="s3" d="m705.6 540.2c0 0-73.7 90.7-99.2 107.1-16.7 10.4-30.6 2.2-30.6 2.2l-29.7-34 3.1 84c0 0-131.1-15.7-186 7-34.3 14.1-26.7-23.1-26.7-23.1 0 0-104.6 8.3-116.5 2.7-1.6-0.8-3.3-1.4-5-2-10.1-3.5-20-4.5-26.7-18.8 0 0-0.4-15.2 8.7-29.1 9-14 67.3-128.3 67.3-128.3 0 0 12-11.7 21.1-18.6 16.9-7.6 81.8-29.1 93.7-38l3.6-5.4-5-21.7c0 0 9-3 21.9-6.4 13.7-3.6 31.8-7.6 48-8.8q2.5-0.2 5-0.3 2.8 0 5.5 0c0 0 0.5 16.2 5.4 19 4.9 2.8 72.6 6.1 72.6 6.1 0 0 18.4 17.3 23.5 29.7 1.8 12.9 33.5 116.1 33.5 116.1l82.6-64.4c0 0 22.7 8.1 29.9 25zm-358.9 95.3c-1.3-3.8-30-48.2-30-48.2l-27.2 39.3c0 0 38.6 7.3 49 13.6l6 6c0 0 3.4-7 2.2-10.7z"/>
			<g id="&lt;Group&gt;">
				<path id="&lt;Path&gt;" class="s9" d="m401.7 735.8l6.2 132.7c0 0-20.2-5-25.8-13.4-5.6-8.4-18.1-134.2-18.1-134.2 0 0 11.9 11 37.7 14.9z"/>
				<path id="&lt;Path&gt;" class="s8" d="m401.7 735.8l6.2 132.7c0 0-20.2-5-25.8-13.4-5.6-8.4-18.1-134.2-18.1-134.2 0 0 11.9 11 37.7 14.9z"/>
			</g>
			<g id="&lt;Group&gt;">
				<path id="&lt;Path&gt;" class="s0" d="m347.5 637.7l-31.4-49.1 26.3-34.9c0 0 2 19.7 13.7 28.9 18.8 14.6 14.7 59.5 14.7 59.5z"/>
				<path id="&lt;Path&gt;" class="s8" d="m347.5 637.7l-31.4-49.1 26.3-34.9c0 0 2 19.7 13.7 28.9 18.8 14.6 14.7 59.5 14.7 59.5z"/>
			</g>
			<g id="&lt;Group&gt;">
				<path id="&lt;Path&gt;" class="s0" d="m539.2 509.8c0 0 22.9 101.8 36.1 118 13.3 16.3 13.6-47 18.3-47.9 4.6-0.8 12.5 37.1 9.4 48.6 0 0 1.8 6 8.5 0 6.6-6.1 89.1-82.6 89.1-82.6 0 0-84.8 107.3-109 106.6-20.5 2.9-42.6-33.8-42.6-33.8z"/>
				<path id="&lt;Path&gt;" class="s8" d="m539.2 509.8c0 0 22.9 101.8 36.1 118 13.3 16.3 13.6-47 18.3-47.9 4.6-0.8 12.5 37.1 9.4 48.6 0 0 1.8 6 8.5 0 6.6-6.1 89.1-82.6 89.1-82.6 0 0-84.8 107.3-109 106.6-20.5 2.9-42.6-33.8-42.6-33.8z"/>
			</g>
			<g id="&lt;Group&gt;">
				<path id="&lt;Path&gt;" class="s0" d="m293.6 620.3l-5.1 6.8c0 0-40.7-5.1-73.5 57-10.1-3.5-20-4.5-26.7-18.8 0 0-0.4-15.2 8.7-29.1 9-14 68-129.7 68-129.7 0 0 8.9-10.1 20.4-17.2 42.1-22.2 81.8-29.1 93.7-38l3.6-5.4-5-21.7c0 0 9-3 21.9-6.4l6.6 28.3c2.3 9.7-2.9 19.5-12.2 23.1l-95.9 37c-6.2 2.4-11.2 7-14.2 13l-52.5 106.2c0.9-1 21.8-22.2 62.2-5.1z"/>
				<path id="&lt;Path&gt;" class="s8" d="m293.6 620.3l-5.1 6.8c0 0-40.7-5.1-73.5 57-10.1-3.5-20-4.5-26.7-18.8 0 0-0.4-15.2 8.7-29.1 9-14 68-129.7 68-129.7 0 0 12.6-11.4 20.4-17.2 39.9-20.5 81.8-29.1 93.7-38l3.6-5.4-5-21.7c0 0 9-3 21.9-6.4l6.6 28.3c2.3 9.7-2.9 19.5-12.2 23.1l-95.9 37c-6.2 2.4-11.2 7-14.2 13l-52.5 106.2c0.9-1 21.8-22.2 62.2-5.1z"/>
			</g>
			<path id="&lt;Path&gt;" class="s3" d="m684.1 510.1l25.3-35.8c0 0 17.9-12 24.4-15.1 6.4-3.1 7.4-9.3 10.5-7.1 3 2.2 0.3 14.8-6.2 18.8-6.5 4-13.9 8-13 10.8 1 2.8 38.6-0.6 38.6-0.6 0 0 48-0.6 48.7 3.1 0.7 3.7-29.9 9.2-29.9 9.2 0 0 32.9-0.3 33 1.6 0 1.8-18.8 8.3-18.8 8.3 0 0 13.3 0.7 12.7 3.6-0.7 2.9-14.2 6.6-14.2 6.6 0 0-27.8 17-34 19.8-6.1 2.7-48.4-2.5-48.4-2.5l-7.2 9.3c0 0-12.3-17.3-25.2-24.7z"/>
			<path id="&lt;Path&gt;" class="s2" d="m590.8 620.2c1.9-13.3 2.5-26.5 2.6-39.9"/>
			<path id="&lt;Path&gt;" class="s2" d="m452.7 408.9q3.1-0.1 6.3-0.1l2 12.9c0.7 4.2 4.4 7.4 8.7 7.4l65.1 4.4c4.8 0.1 22.9 24.9 25.9 34.2l32.9 112.2 82.1-65.2c0 0 16.1 2.2 29.9 25.4 0 0-52.9 70.4-100.9 108-7 5.5-22.8 6.7-29 0.4-10.6-10.7-20.1-20.2-27.5-30"/>
			<path id="&lt;Path&gt;" class="s2" d="m329.7 585.9q8.2-5.3 16.4-10.6"/>
			<path id="&lt;Path&gt;" class="s2" d="m335.8 589.5c4.3-1.4 8.9-2.1 13.5-1.8"/>
			<path id="&lt;Path&gt;" class="s2" d="m316.7 588.3c10 13.9 19.3 28.4 27.8 43.3 1.9 3.3 2.4 7.3 1.6 11l-40 176.8"/>
			<path id="&lt;Path&gt;" class="s2" d="m534.8 482.2l13.8 133.1c0.9 29.9 3.1 48.8 4.4 86.2"/>
			<path id="&lt;Path&gt;" class="s10" d="m381.1 450.3l18.5 118.6 24.8-8.2c17.1-5.7 35-8.3 53-7.5l25.3 1-30.5-126.3h11.6l65.2 190.8 4 84.7c0 0-121.3-26.7-189.3 9.2l5.4 52.1c0 0 3.2 14.2 6.6 55.7l-54-1h-15.6l39.4-173c0 0 34.1 2.5 33-24.8-1-27.4-10.3-164.9-10.3-164.9z"/>
			<path id="&lt;Path&gt;" class="s6" d="m430.4 449.1c0 3.2-2.5 5.7-5.6 5.7-3.1 0-5.7-2.5-5.7-5.7 0-3.1 2.6-5.6 5.7-5.6 3.1 0 5.6 2.5 5.6 5.6z"/>
			<path id="&lt;Path&gt;" class="s6" d="m436.9 476.5c0 3.2-2.6 5.7-5.7 5.7-3.1 0-5.6-2.5-5.6-5.7 0-3.1 2.5-5.6 5.6-5.6 3.1 0 5.7 2.5 5.7 5.6z"/>
			<path id="&lt;Path&gt;" class="s7" d="m466.5 627.2q30.6-5.1 61.5-8.1"/>
			<path id="&lt;Path&gt;" class="s7" d="m431.2 633.9q12.6-2.7 25.3-4.9"/>
			<path id="&lt;Path&gt;" class="s7" d="m528 626.4q-24.9 10-50.1 19"/>
			<path id="&lt;Path&gt;" class="s2" d="m524.1 484.8c1.7 10.9 4.2 21.6 7.5 32"/>
			<g id="&lt;Group&gt;">
				<g id="&lt;Group&gt;">
					<path id="&lt;Path&gt;" class="s2" d="m764.1 496.4c0 0 48-7.9 48.3-12.2 0.2-4.3-34.6-2.1-42.8-2.7-8.2-0.7-42.6 3.7-43.8 1.5-1.1-2.1 1.7-2.7 9.3-9 7.5-6.3 13.1-17.5 11.1-21-2-3.5-8.8 4.3-14 7.2-4.1 2.3-19.9 11.3-22.8 15.2-2.9 3.9-21.9 30.2-29.1 40.2"/>
					<path id="&lt;Path&gt;" class="s2" d="m765.1 495.9c0 0 50.6-4.6 50.4-0.9-0.4 6.1-34.3 10.9-48.1 11.9"/>
					<path id="&lt;Path&gt;" class="s2" d="m767 507.2c0 0 43-6 42.4-0.3-0.6 5.7-49.5 14.9-49.5 14.9"/>
					<path id="&lt;Path&gt;" class="s2" d="m703.8 542.4c4.8-6.9 8-11.7 8-11.7 0 0 41.4 4.6 47.3 3.4 6-1.1 33.9-19 33.9-19"/>
				</g>
				<path id="&lt;Path&gt;" class="s2" d="m722.1 496.2c9.1 1 17.4 7.2 20.9 15.7"/>
			</g>
			<path id="&lt;Path&gt;" class="s2" d="m599.9 584.3c4.7 7.1 5.2 16.1 5.6 24.6"/>
			<g id="&lt;Group&gt;">
				<path id="&lt;Path&gt;" class="s3" d="m364 715.1l14.8 126.5c0 0-0.7 13.3 10.5 20 11.1 6.7 60.1 17.6 87.5 15.9 27.3-1.8 62.1-3.5 74.6-13.2 12.6-9.6 9.7-35.9 9.7-35.9l9.1-79.2c0 0 8.3-30.2-1.7-39.3-18.2-16.5-172.3-29-204.5 5.2z"/>
				<g id="&lt;Group&gt;">
					<path id="&lt;Path&gt;" class="s0" d="m364 720.9c0 0 8.4 7.8 20.4 11.4 12 3.6 159.7-0.7 178-4.3 18.3-3.5 11.7-18.5 1.5-22.7-10.2-4.2-105-18-146.8-8.5-37.2 8.4-60.3 9.1-53.1 24.1z"/>
					<path id="&lt;Path&gt;" class="s8" d="m364 720.9c0 0 8.4 7.8 20.4 11.4 12 3.6 159.7-0.7 178-4.3 18.3-3.5 11.7-18.5 1.5-22.7-10.2-4.2-93.8-16.4-144.2-9.5-37.2 8.4-62.9 10.1-55.7 25.1z"/>
				</g>
				<path id="&lt;Path&gt;" class="s2" d="m574.2 717.2c0 3.9-4.3 7.6-11.8 10.8-17.6 7.6-53.1 12.8-94 12.8-39.1 0-73.2-4.7-91.5-11.7-9.1-3.5-14.3-7.5-14.3-11.9 0-13 47.3-23.6 105.8-23.6 58.4 0 105.8 10.6 105.8 23.6z"/>
				<path id="&lt;Path&gt;" class="s6" d="m562.4 728c-17.6 7.6-53.1 12.8-94 12.8-39.1 0-73.2-4.7-91.5-11.7 13.7-8.6 50.4-14.7 93.6-14.7 41.5 0 77 5.6 91.9 13.6z"/>
				<path id="&lt;Path&gt;" class="s2" d="m362.6 717.2l16.5 130.6c0.8 6 4.6 11.3 10.2 13.8 20.8 9.4 76.7 28.3 156.5 6.2 6.9-1.9 11.8-7.9 12.7-15l5-43.5 0.5-4.4 4.1-35.1 0.9-7.8 5.2-44.8"/>
				<g id="&lt;Group&gt;">
					<path id="&lt;Path&gt;" class="s6" d="m450.1 877.7c0 0-9.1-10.7-4.8-24.7 0 0-12.2 6.1-12.6 16.9 0 0-17.9-5-15.7-31.2 0 0-10.1 16.1-1.1 33.7 8.9 17.5 34.2 5.3 34.2 5.3z"/>
					<path id="&lt;Path&gt;" class="s6" d="m496.8 877.8c0 0 13.1-11.8 16.4-32.9 0 0 4.3 12.2-0.4 27 0 0 12.3-4.6 15.2-19 0 0 2.5 16.1-5.1 24.9-7.5 8.9-26.1 0-26.1 0z"/>
				</g>
				<g id="&lt;Group&gt;">
					<path id="&lt;Path&gt;" class="s6" d="m604.7 774c-4.7 16.7-21.8 34.8-41.2 35.3l0.5-4.4c16.7-0.9 32.2-17.1 36.5-32.1 1-3.6 2.8-12.5-3.5-16.6-3.5-2.2-7-2.9-10.7-2-9.4 2.3-16.5 14.4-16.6 14.5-0.3 0.6-0.9 1-1.6 1.1l0.9-7.8c3.3-4.3 9.1-10.3 16.3-12.1 4.8-1.1 9.5-0.3 14.1 2.6 6.2 4 8.1 11.8 5.3 21.5z"/>
				</g>
				<path id="&lt;Path&gt;" class="s7" d="m452.4 724.3c10.9 6.2 24.2 6.5 36.4 3.7 4.2-1 8.4-2.4 11.9-4.9"/>
				<path id="&lt;Path&gt;" class="s7" d="m516.6 725.1c-3.4 3.4-7.5 6-12.1 7.5"/>
				<path id="&lt;Path&gt;" class="s11" d="m377 813.1c-39.6 4.7-43.6-41.1-32.9-48.3 10.6-7.3 31.6 17.5 31.6 17.5"/>
				<path id="&lt;Path&gt;" class="s4" d="m481.7 723.1l-78.7-143c0 0-8.6-5.1-8 5.2 0.5 10.3 73 138.7 73 138.7z"/>
				<g id="&lt;Group&gt;">
					<path id="&lt;Path&gt;" class="s2" d="m451.8 754.1c23.8 1.4 53.9 0.8 79.8-7.1"/>
					<path id="&lt;Path&gt;" class="s2" d="m409.9 749c0 0 8 1.6 20.6 3.1"/>
				</g>
			</g>
			<g id="&lt;Group&gt;">
				<path id="&lt;Path&gt;" class="s2" d="m335.2 565.5c-16.2 18.2-30.8 37.7-43.8 58.2"/>
				<path id="&lt;Path&gt;" class="s2" d="m282.3 623c-9.7-2.3-20-1.8-29.4 1.3"/>
				<path id="&lt;Path&gt;" class="s2" d="m279.1 503.4c0 0 36.1 20.6 49.3 52.3"/>
				<path id="&lt;Path&gt;" class="s3" d="m308.9 632.2c0.7 25.8 16.8 52.2 16.8 52.2l59.2-9-4-11.5c2.1 1 6.2 0.7 8.9 1.3 17.5 4.1 46.1 3.3 46.1 3.3 6.5-5.9 8.6-9.4 10.5-12.8 4.8-8.5 0.3-10.8 0.3-10.8 7-9.8 1.6-16.9 1.6-16.9 10.3-5.9 5.9-9.1 5.9-9.1-6.6-10.4-45.8-5.9-45.8-5.9l-34.4 29-23.3-4.1z"/>
				<g id="&lt;Group&gt;">
					<path id="&lt;Path&gt;" class="s2" d="m370.8 642.4l5.2-1.7 32.4-27.7c0 0 42.3-2.2 45.3 5.4 3.1 7.6-5.7 11.1-13.3 14.1"/>
					<path id="&lt;Path&gt;" class="s2" d="m446.9 629.8c0 0 10.5 4.6-3.9 17.3"/>
					<path id="&lt;Path&gt;" class="s2" d="m445.5 645.2c4.6-2.6 7.7 9.1-8.5 14.8"/>
					<path id="&lt;Path&gt;" class="s2" d="m446.7 656.5l-11.8 12.7c0 0-26.6 2.3-50.6-5.4l-2.6 0.8"/>
				</g>
				<path id="&lt;Path&gt;" class="s2" d="m244.7 646.3c11.2-12 27.5-19.1 43.9-19.2 3.4 0 6.8 0.7 10 1.7 11.6 3.6 59.2 9 73.7 14.1l12.6 31.8c-49.8 12.6-116.2 13.6-156.1 11.8-8.8-0.4-19.4-3.5-28.7-8.3-10.9-5.5-15-19-9.4-29.8l71.7-138c2-3.7 15.9-16.9 19.9-18.5l36.5-17.6c2.7-1.3 9-4 12-5l40.3-13.5c3.1-1.3 12-8.3 11.2-11.6l-5-20.3c0 0 31.7-13.4 75.4-15"/>
			</g>
		</g>
	</g>
	<g id="Kitchen">
		<g id="Wall">
			<g id="&lt;Group&gt;">
				<path id="&lt;Path&gt;" class="s2" d="m178.6 421.8h-43.3v-26.1h43.3z"/>
				<path id="&lt;Path&gt;" class="s2" d="m197.8 455.4h-43.2v-26h43.2z"/>
			</g>
			<g id="&lt;Group&gt;">
				<path id="&lt;Path&gt;" class="s2" d="m884.1 413.3h-43.2v-26h43.2z"/>
				<path id="&lt;Path&gt;" class="s2" d="m857.2 447h-43.2v-26.1h43.2z"/>
			</g>
			<g id="&lt;Group&gt;">
				<path id="&lt;Path&gt;" class="s2" d="m248.5 751.2h-36.1v9.8h36.1z"/>
				<path id="&lt;Path&gt;" class="s2" d="m269 719.8h-40.5v26.1h40.5z"/>
			</g>
		</g>
		<g id="Graphics">
			<g id="Graphics">
				<path id="&lt;Path&gt;" class="s2" d="m586.5 231.7v-109.5h274.9v193.8h-41"/>
				<path id="&lt;Path&gt;" class="s2" d="m586.5 271.7v-16.4"/>
				<path id="&lt;Path&gt;" class="s2" d="m623.4 316h-36.9v-33.5"/>
				<g id="&lt;Group&gt;">
					<path id="&lt;Path&gt;" class="s2" d="m660.8 141.8c0 2.1-1.7 3.8-3.8 3.8-2.2 0-3.9-1.7-3.9-3.8 0-2.2 1.7-3.9 3.9-3.9 2.1 0 3.8 1.7 3.8 3.9z"/>
					<path id="&lt;Path&gt;" class="s2" d="m727.8 142.1c0 2.1-1.7 3.8-3.8 3.8-2.1 0-3.8-1.7-3.8-3.8 0-2.2 1.7-3.9 3.8-3.9 2.1 0 3.8 1.7 3.8 3.9z"/>
					<path id="&lt;Path&gt;" class="s2" d="m795.6 141.8c0 2.1-1.8 3.8-3.9 3.8-2.1 0-3.8-1.7-3.8-3.8 0-2.2 1.7-3.9 3.8-3.9 2.1 0 3.9 1.7 3.9 3.9z"/>
				</g>
				<g id="&lt;Group&gt;">
					<path id="&lt;Path&gt;" class="s2" d="m668.1 288.9c-3.3 0-6-2.7-5.9-6l1.8-114.6c0.2-4.2-1.2-7.8-5.3-7.8h-2.9c-4.1 0-7.4 1.9-7.3 6l2.6 116.5c0.1 3.3-2.5 6-5.8 6h-0.4c-3.2 0-5.8 2.5-5.8 5.7l-0.8 53.1c-0.1 5.8 4.6 10.5 10.4 10.4l18.8-0.2c5.8-0.1 10.3-4.8 10.1-10.5l-1.5-53c-0.1-3.2-2.8-5.7-6-5.7z"/>
					<path id="&lt;Path&gt;" class="s2" d="m653.3 168.8c0-1.8 1.5-3.4 3.4-3.4 1.8 0 3.4 1.6 3.4 3.4 0 1.9-1.6 3.4-3.4 3.4-1.9 0-3.4-1.5-3.4-3.4z"/>
					<path id="&lt;Path&gt;" class="s2" d="m644.5 343.3v-29.6"/>
					<path id="&lt;Path&gt;" class="s2" d="m650.1 343.3v-29.6"/>
					<path id="&lt;Path&gt;" class="s2" d="m656.6 342.8l-0.1-29.1"/>
					<path id="&lt;Path&gt;" class="s2" d="m663.5 343.2v-29.6"/>
					<path id="&lt;Path&gt;" class="s2" d="m670.8 343.1v-29.6"/>
				</g>
				<g id="&lt;Group&gt;">
					<path id="&lt;Path&gt;" class="s2" d="m788.5 170.7c0-1.9 1.5-3.4 3.4-3.4 1.9 0 3.4 1.5 3.4 3.4 0 1.8-1.5 3.3-3.4 3.3-1.9 0-3.4-1.5-3.4-3.3z"/>
					<path id="&lt;Path&gt;" class="s2" d="m792.6 296.2l7.1-127c0.2-4.2-3.1-7.7-7.3-7.7h-1.3c-4.1 0-7.4 3.3-7.3 7.4l1.6 75.6c0.4 17.3 0.7 34.7 1.1 52.1 0.1 1.5-0.7 3-2 3.8-4.9 3.1-8.3 8.4-10 14-2.4 7.3-2.8 16-1.5 23.5 1.5 8.5 7.4 17.7 16.5 19 9 1.2 15.5-6.8 17.8-14.6 2.4-7.9 3.4-17.5 1.4-25.6-1-3.9-2.9-7.4-5.3-10.6-1.7-2.2-5.3-4.4-8.2-5.6-1.7-0.7-2.7-2.4-2.6-4.3z"/>
					<path id="&lt;Path&gt;" class="s2" d="m778.3 336v-17"/>
					<path id="&lt;Path&gt;" class="s2" d="m802.6 336v-17"/>
					<path id="&lt;Path&gt;" class="s2" d="m785.5 339.9v-25.2"/>
					<path id="&lt;Path&gt;" class="s2" d="m797 339.9v-25.2"/>
					<path id="&lt;Path&gt;" class="s4" d="m791.1 348.2v-37.4"/>
				</g>
				<g id="&lt;Group&gt;">
					<path id="&lt;Path&gt;" class="s2" d="m720.5 170.1c0-1.8 1.5-3.4 3.4-3.4 1.8 0 3.4 1.6 3.4 3.4 0 1.9-1.6 3.4-3.4 3.4-1.9 0-3.4-1.5-3.4-3.4z"/>
					<path id="&lt;Path&gt;" class="s2" d="m728.5 282.1l5.3-114.5c0.2-4.1-3.1-7.6-7.3-7.6h-5c-4.2 0-7.5 3.5-7.3 7.7l6.3 115.2c0.1 1.6-0.7 3.1-2.1 4-6 3.7-22.6 16.1-23 37.5-0.5 26.2 29.1 37.8 46.1 28.1 16.6-9.5 28.5-48.7-10.5-66.3-1.6-0.7-2.6-2.3-2.5-4.1z"/>
					<path id="&lt;Path&gt;" class="s2" d="m725.1 343.3c0-1.1 0.9-1.9 1.9-1.9 1 0 1.8 0.8 1.8 1.9 0 1-0.8 1.8-1.8 1.8-1 0-1.9-0.8-1.9-1.8z"/>
					<path id="&lt;Path&gt;" class="s2" d="m713.3 338.7c0-1.1 0.9-1.9 1.9-1.9 1 0 1.8 0.8 1.8 1.9 0 1-0.8 1.8-1.8 1.8-1 0-1.9-0.8-1.9-1.8z"/>
					<path id="&lt;Path&gt;" class="s2" d="m737.1 338.7c0-1.1 0.9-1.9 1.9-1.9 1 0 1.8 0.8 1.8 1.9 0 1-0.8 1.8-1.8 1.8-1 0-1.9-0.8-1.9-1.8z"/>
					<path id="&lt;Path&gt;" class="s2" d="m725.1 331.3c0-1.1 0.9-1.9 1.9-1.9 1 0 1.8 0.8 1.8 1.9 0 1-0.8 1.8-1.8 1.8-1 0-1.9-0.8-1.9-1.8z"/>
					<path id="&lt;Path&gt;" class="s2" d="m713.3 326.6c0-1 0.9-1.8 1.9-1.8 1 0 1.8 0.8 1.8 1.8 0 1.1-0.8 1.9-1.8 1.9-1 0-1.9-0.8-1.9-1.9z"/>
					<path id="&lt;Path&gt;" class="s2" d="m737.1 326.6c0-1 0.9-1.8 1.9-1.8 1 0 1.8 0.8 1.8 1.8 0 1.1-0.8 1.9-1.8 1.9-1 0-1.9-0.8-1.9-1.9z"/>
					<path id="&lt;Path&gt;" class="s2" d="m725.1 319.3c0-1.1 0.9-1.9 1.9-1.9 1 0 1.8 0.8 1.8 1.8 0 1.1-0.8 1.9-1.8 1.9-1 0-1.9-0.8-1.9-1.9z"/>
					<path id="&lt;Path&gt;" class="s2" d="m713.3 314.6c0-1 0.9-1.8 1.9-1.8 1 0 1.8 0.8 1.8 1.8 0 1.1-0.8 1.9-1.8 1.9-1 0-1.9-0.8-1.9-1.9z"/>
					<path id="&lt;Path&gt;" class="s2" d="m737.1 314.6c0-1 0.9-1.8 1.9-1.8 1 0 1.8 0.8 1.8 1.8 0 1.1-0.8 1.9-1.8 1.9-1 0-1.9-0.8-1.9-1.9z"/>
					<path id="&lt;Path&gt;" class="s2" d="m725.1 298.9c0 1 0.9 1.9 1.9 1.9 1 0 1.8-0.9 1.8-1.9 0-1-0.8-1.8-1.8-1.8-1 0-1.9 0.8-1.9 1.8z"/>
					<path id="&lt;Path&gt;" class="s2" d="m713.3 303.5c0 1.1 0.9 1.9 1.9 1.9 1 0 1.8-0.8 1.8-1.9 0-1-0.8-1.8-1.8-1.8-1 0-1.9 0.8-1.9 1.8z"/>
					<path id="&lt;Path&gt;" class="s2" d="m737.1 303.5c0 1.1 0.9 1.9 1.9 1.9 1 0 1.8-0.8 1.8-1.9 0-1-0.8-1.8-1.8-1.8-1 0-1.9 0.8-1.9 1.8z"/>
				</g>
			</g>
		</g>
	</g>
</svg>