<svg version="1.2" xmlns="http://www.w3.org/2000/svg" viewBox="0 0 3760 3471" width="3760" height="3471">
	<title>8222108-ai</title>
	<defs>
		<clipPath clipPathUnits="userSpaceOnUse" id="cp1">
			<path d="m183.21 438.64h3500.85v2908h-3500.85z"/>
		</clipPath>
		<clipPath clipPathUnits="userSpaceOnUse" id="cp2">
			<path d="m183.21 438.64h3500.85v2908h-3500.85z"/>
		</clipPath>
		<clipPath clipPathUnits="userSpaceOnUse" id="cp3">
			<path d="m-2392 53.67h6137.34v3452.26h-6137.34z"/>
		</clipPath>
	</defs>
	<style>
		tspan { white-space:pre } 
		.s0 { fill: #36454f } 
		.s1 { fill: none;stroke: #ffffff;stroke-width: 2 } 
		.s2 { fill: #ff261f } 
		.s3 { fill: #ff6d69 } 
		.s4 { fill: #ffa6a3 } 
		.s5 { fill: #ffffff } 
		.s6 { fill: #173556 } 
		.s7 { fill: #ffc48c } 
		.s8 { fill: #ff9d40 } 
		.s9 { fill: #ffffff;stroke: #23568e;stroke-linecap: round;stroke-width: 2 } 
		.s10 { fill: none;stroke: #23568e;stroke-linecap: round;stroke-width: 2 } 
		.s11 { fill: #e0efff } 
		.s12 { fill: #b7d9ff } 
		.s13 { fill: none;stroke: #ffd8b3;stroke-width: 2 } 
		.s14 { fill: #ff9f45 } 
		.s15 { fill: #ff524d } 
		.s16 { fill: #6da814 } 
		.s17 { fill: none;stroke: #ffffff;stroke-linecap: round;stroke-width: 2 } 
		.s18 { fill: none;stroke: #ff9d40;stroke-width: 2 } 
		.s19 { fill: #ff751f } 
		.s20 { fill: #c95c18 } 
		.s21 { fill: #20323e } 
		.s22 { fill: none;stroke: #ffffff;stroke-linecap: round;stroke-width: 3 } 
	</style>
	<g id="BACKGROUND">
	</g>
	<g id="OBJECTS">
		<g id="&lt;Group&gt;">
			<g id="&lt;Group&gt;">
			</g>
			<g id="&lt;Group&gt;">
				<g id="&lt;Group&gt;">
				</g>
			</g>
		</g>
		<g id="&lt;Group&gt;">
			<g id="&lt;Group&gt;">
				<g id="&lt;Group&gt;">
				</g>
			</g>
			<g id="&lt;Group&gt;">
				<g id="&lt;Group&gt;">
					<g id="&lt;Group&gt;">
					</g>
				</g>
			</g>
			<g id="&lt;Group&gt;">
				<g id="&lt;Group&gt;">
				</g>
			</g>
		</g>
		<path id="&lt;Path&gt;" class="s0" d="m1930.4 2998.6c-546.9 0-989.1-442.1-989.1-989.1 0-546.9 442.2-989.1 989.1-989.1 547 0 989.1 442.2 989.1 989.1 0 547-442.1 989.1-989.1 989.1z"/>
		<g id="&lt;Clip Group&gt;" clip-path="url(#cp1)">
			<g id="&lt;Group&gt;">
				<path id="&lt;Path&gt;" class="s1" d="m607.7 2940.5h2660.5v764.6h-2660.5z"/>
				<path id="&lt;Path&gt;" class="s1" d="m478.6 2828.7h2910.1v111.6h-2910.1z"/>
			</g>
		</g>
		<g id="&lt;Group&gt;">
			<path id="&lt;Path&gt;" class="s2" d="m354.5 3154.4c-113.9 56.9-252.3 10.7-309.3-103.1-57-113.8-11-252.3 102.8-309.4z"/>
			<path id="&lt;Path&gt;" class="s3" d="m340.2 3125.9c-98 46.3-215.5 6-264.2-91.3-48.7-97.3-10.6-215.5 85.2-266.2z"/>
			<path id="&lt;Path&gt;" class="s4" d="m201.3 2976.4c-5.7 2.8-12 1.8-14.1-2.3-2-4.1 0.9-9.8 6.7-12.6 5.7-2.9 12-1.9 14.1 2.2 2 4.1-0.9 9.8-6.7 12.7z"/>
			<path id="&lt;Path&gt;" class="s4" d="m205.7 2931c-5.7 2.9-12 1.9-14.1-2.2-2.1-4.2 0.9-9.8 6.6-12.7 5.7-2.9 12.1-1.8 14.1 2.3 2.1 4.1-0.9 9.8-6.6 12.6z"/>
			<path id="&lt;Path&gt;" class="s4" d="m244.8 3005c-5.7 2.9-12 1.9-14.1-2.3-2.1-4.1 0.9-9.7 6.6-12.6 5.7-2.9 12.1-1.9 14.1 2.3 2.1 4.1-0.9 9.8-6.6 12.6z"/>
		</g>
		<g id="&lt;Group&gt;">
			<path id="&lt;Path&gt;" class="s1" d="m2872.3 1305.2v-209.7c0-22.1-17.9-40-40-40-22 0-39.9 17.9-39.9 40v209.7 40.6 334.1c88.8 0 160.8-72 160.8-160.9v-213.8z"/>
			<path id="&lt;Path&gt;" class="s1" d="m2872.3 1305.2h-79.9"/>
		</g>
		<g id="&lt;Group&gt;">
			<path id="&lt;Path&gt;" class="s1" d="m3194.5 1554.5c-17.8 0-32.2-14.5-32.2-32.3v-442.7c0-17.8 14.4-32.3 32.2-32.3 17.9 0 32.3 14.5 32.3 32.3v442.7c0 17.8-14.4 32.3-32.3 32.3z"/>
			<path id="&lt;Path&gt;" class="s1" d="m3195.9 1712.4v-157.4"/>
			<path id="&lt;Path&gt;" class="s1" d="m3194 2064.7c-98.2 0-177.6-79.4-177.6-177.6 0-98.2 79.4-177.6 177.6-177.6 98.3 0 177.7 79.4 177.7 177.6 0 98.2-79.4 177.6-177.7 177.6z"/>
		</g>
		<g id="&lt;Clip Group&gt;" clip-path="url(#cp2)">
			<g id="&lt;Group&gt;">
				<path id="&lt;Path&gt;" class="s5" d="m1412.6 1929.7l499.3-103.2 457.1 103.2c176.5 34.6 288.8 142.2 269.3 303.7l-125 672.2 19.2 500.9-1155.9-6.1-174.7-1228c-18.2-128.1 73.3-215.7 210.7-242.7z"/>
				<path id="&lt;Path&gt;" class="s6" d="m2139.7 1618.5l-95.4 146.2-12.2-158.3z"/>
				<path id="&lt;Path&gt;" class="s7" d="m1779.4 1574.6h265.7v349.9h-265.7z"/>
				<path id="&lt;Path&gt;" class="s6" d="m2158.5 1575.2c-14.9 60.2-75.9 96.9-136.1 81.9-60.2-14.9-96.9-75.9-81.9-136.1 14.9-60.2 75.9-96.9 136.1-81.9 60.2 14.9 96.9 75.9 81.9 136.1z"/>
				<path id="&lt;Path&gt;" class="s7" d="m2007.4 1564c-8.3 33.6 12.1 67.5 45.6 75.8 33.5 8.3 67.5-12.1 75.8-45.6 8.3-33.5-12.1-67.5-45.6-75.8-33.6-8.3-67.5 12.1-75.8 45.6z"/>
				<path id="&lt;Path&gt;" class="s7" d="m1912.2 1786.6l-123.6-30.7c-82.4-20.5-128.7-108.1-99-187.8l74.7-200.8c17.3-46.3 66.5-72.3 114.5-60.4l90.7 22.6c43.1 10.7 73.5 49.3 73.7 93.7l2.3 385.2z"/>
				<path id="&lt;Path&gt;" class="s8" d="m2059.2 1602.4c-15.3 0-27.7-12.4-27.7-27.7 0-15.3 12.4-27.6 27.7-27.6 15.2 0 27.6 12.3 27.6 27.6 0 15.3-12.4 27.7-27.6 27.7z"/>
				<path id="&lt;Path&gt;" class="s6" d="m2090.1 1321.5l-58 284.9-39.1-7.1 14.9-70.5-28-28.6c-32.8-33.4-49.3-79.4-45.2-126l9-101.9z"/>
				<g id="&lt;Group&gt;">
					<path id="&lt;Path&gt;" class="s5" d="m1896.4 984.9l414.6 158.4-148.7 389.2-414.6-158.4z"/>
					<path id="&lt;Path&gt;" class="s5" d="m2311 1143.3l82.1-81.1c17.7-17.5 11.5-47.3-11.7-56.2l-447-172c-23.4-9-48.2 9.4-46.4 34.3l8.4 116.6z"/>
					<path id="&lt;Path&gt;" class="s9" d="m2239.5 1115.7l42.2-58.6c10.9-14.7 4.7-35.9-12.5-42.3-16-6.1-33.6 3.7-36.8 20.5l-15.5 71.3"/>
					<path id="&lt;Path&gt;" class="s9" d="m2115.4 1064.8l42.1-58.6c11-14.7 4.8-35.9-12.4-42.4-16-6-33.6 3.8-36.9 20.6l-15.4 71.3"/>
					<path id="&lt;Path&gt;" class="s9" d="m1977.3 1011.5l42.2-58.6c11-14.7 4.7-35.9-12.5-42.3-16-6-33.5 3.8-36.8 20.5l-15.5 71.3"/>
					<path id="&lt;Path&gt;" class="s9" d="m2311 1143.3l-414.6-158.4"/>
				</g>
				<path id="&lt;Path&gt;" class="s5" d="m1491.3 3261.4l-274.9-67.6c-187.1-46-295.2-242-234.2-424.8l243.7-731.1z"/>
				<path id="&lt;Path&gt;" class="s0" d="m1491.3 3261.4c-86.8 0-157-127-157-284.1 0-157.2 70.2-284.1 157-284.1 86.8 0 157 126.9 157 284.1 0 157.1-70.2 284.1-157 284.1z"/>
				<path id="&lt;Path&gt;" class="s5" d="m2604.2 2061.6l328.2 546.7c99.4 173.5-4.1 392.9-201.2 426.6l-348.3 59.5z"/>
				<path id="&lt;Path&gt;" class="s9" d="m2503.9 2386.6c-4.6 22.9 9.2 673.1 9.2 673.1"/>
				<path id="&lt;Path&gt;" class="s9" d="m2631.7 2764.1l-112.3-61.2 109.7-30.7"/>
				<path id="&lt;Path&gt;" class="s6" d="m1883.6 1501.9c-3.8 10.2-1.8 20.5 4.5 22.9 6.3 2.4 14.6-4 18.4-14.3 3.9-10.2 1.9-20.4-4.4-22.8-6.4-2.4-14.6 4-18.5 14.2z"/>
				<path id="&lt;Path&gt;" class="s6" d="m1762.6 1456.9c-3.9 10.3-1.9 20.5 4.4 22.9 6.4 2.4 14.6-4 18.5-14.3 3.9-10.2 1.9-20.4-4.5-22.8-6.3-2.4-14.6 4-18.4 14.2z"/>
				<path id="&lt;Path&gt;" class="s8" d="m1828.9 1451.6l-82.2 115.7 39.6 13.6z"/>
				<path id="&lt;Path&gt;" class="s5" d="m1836.3 1643.6c-15.7 23-45.5 33.4-72.8 23.4-27.4-10-43.5-37.1-40.6-64.8z"/>
				<path id="&lt;Path&gt;" class="s6" d="m1778.8 1753.1l66.1 16.9-66.1 34.5z"/>
				<path id="&lt;Path&gt;" class="s6" d="m1768.2 1408.4c-18.4 0-33.3-6.4-33.3-14.3 0-8 14.9-14.4 33.3-14.4 18.5 0 33.4 6.4 33.4 14.4 0 7.9-14.9 14.3-33.4 14.3z"/>
				<path id="&lt;Path&gt;" class="s6" d="m1945.4 1470.2c-4.5 6.5-20.4 3.3-35.6-7.2-15.1-10.6-23.7-24.4-19.1-30.9 4.5-6.5 20.4-3.2 35.5 7.3 15.2 10.5 23.8 24.3 19.2 30.8z"/>
				<path id="&lt;Path&gt;" class="s5" d="m1721.8 2361.7l-7.2-371.9 329-176c16.2-8.6 35.7 3.1 35.7 21.4v35.4 426.1z"/>
				<path id="&lt;Path&gt;" class="s5" d="m1700.9 2153.7l15.6-299.6c1-19.1 22.7-29.6 38.3-18.4l194.5 139.1z"/>
				<path id="&lt;Path&gt;" class="s9" d="m1857.4 1908.5l-96.8 55.1c-28.4 16.2-46 46.4-46 79.2v348.5"/>
				<path id="&lt;Path&gt;" class="s6" d="m1794.2 2061c-9.1 0-16.4-7.3-16.4-16.3 0-9.1 7.3-16.4 16.4-16.4 9.1 0 16.4 7.3 16.4 16.4 0 9-7.3 16.3-16.4 16.3z"/>
				<path id="&lt;Path&gt;" class="s6" d="m1794.2 2189.1c-9.1 0-16.4-7.3-16.4-16.4 0-9 7.3-16.3 16.4-16.3 9.1 0 16.4 7.3 16.4 16.3 0 9.1-7.3 16.4-16.4 16.4z"/>
				<path id="&lt;Path&gt;" class="s9" d="m1355.9 2572.2v-279.1"/>
				<g id="&lt;Group&gt;">
					<path id="&lt;Path&gt;" class="s7" d="m2016.6 2728.7l-1.6 39.4c-1.6 36.9-27.4 68.3-63.3 76.9l-329.3 78.7-17.4 18.3c-63.4 67.2-173.5 54.7-220.3-25l-20.9-35.7-124.7-11.3c-36.6-3.3-66.7-30.5-73.7-66.6l-17.8-91.6z"/>
					<path id="&lt;Path&gt;" class="s10" d="m1891.9 2732v21.2c0 28.3-19.4 52.9-47 59.3l-197.9 46.4"/>
				</g>
				<path id="&lt;Path&gt;" class="s9" d="m1350 3227l99.8 26.1"/>
				<g id="&lt;Group&gt;">
					<path id="&lt;Path&gt;" class="s11" d="m1609.1 2803.6c-446.1 0-806.7-62.3-806.7-139.2 0-77 360.6-139.2 806.7-139.2 446 0 806.6 62.2 806.6 139.2 0 76.9-360.6 139.2-806.6 139.2z"/>
					<path id="&lt;Path&gt;" class="s12" d="m1641.6 2723.3c-278.5 0-503.7-38.2-503.7-85.5 0-47.2 225.2-85.4 503.7-85.4 278.5 0 503.7 38.2 503.7 85.4 0 47.3-225.2 85.5-503.7 85.5z"/>
					<g id="&lt;Group&gt;">
						<path id="&lt;Path&gt;" class="s7" d="m2115.1 2629.9c0 40.4-212 73.1-473.5 73.1-261.6 0-473.6-32.7-473.6-73.1 0-40.3 200.6-240 462.2-240 261.5 0 484.9 199.7 484.9 240z"/>
						<path id="&lt;Path&gt;" class="s13" d="m1961.8 2512.3c0 183.6-624.1 188.3-743.7 101-119.7-87.3 345.2-109.8 484.3-77.5 139.1 32.4-25.9 64.7-229.6 51.8-203.8-12.9 209.7-126.2 440.5-88.9 160.9 26 326 130.9-81.5 173"/>
						<path id="&lt;Path&gt;" class="s14" d="m1386.3 2429.7c-27.9 11.8-30.2 50.1-4.2 65.7 32.6 19.5 73.4 29.6 99.1 16.5l58.3-29.8c34.6-17.6 74.5-21.9 112-12 28.4 7.5 58.2 7 86.3-1.6l91.6-27.9c25.6-7.8 29.7-42.3 6.7-56l-90.2-53.3c-17.3-10.2-38.8-10.3-56.1-0.2l-55.8 32.3c-7.9 4.6-16.8 7.1-25.9 7.4l-83.5 2.9c-10.3 0.3-20.3 3.5-28.9 9.3z"/>
						<path id="&lt;Path&gt;" class="s15" d="m1729.5 2504.2c-15.4 0-27.8-14-27.8-31.4 0-17.4 12.4-31.5 27.8-31.5 15.4 0 27.8 14.1 27.8 31.5 0 17.4-12.4 31.4-27.8 31.4z"/>
						<path id="&lt;Path&gt;" class="s15" d="m1495.7 2416.2c-14.1 10.2-30.5 11.6-36.6 3.1-6.2-8.5 0.1-23.7 14.2-33.9 14.1-10.2 30.5-11.6 36.6-3.1 6.2 8.5-0.1 23.6-14.2 33.9z"/>
						<path id="&lt;Path&gt;" class="s15" d="m1564.3 2606.1c-14.1 10.3-30.5 11.7-36.6 3.2-6.2-8.5 0.1-23.7 14.2-33.9 14-10.3 30.5-11.7 36.6-3.2 6.2 8.5-0.1 23.7-14.2 33.9z"/>
						<path id="&lt;Path&gt;" class="s16" d="m1560.2 2410.8l-14.4-91.4 113.1 42.1c0 0-16.7 59.4-98.7 49.3z"/>
						<path id="&lt;Path&gt;" class="s16" d="m1669 2424.2l-65.5 64.7c0 0 21.3 32.8 84.3 24.6 0 0-20.4-90.1-18.8-89.3z"/>
					</g>
					<path id="&lt;Path&gt;" class="s17" d="m1071 2699.5c-80-13.7-127.2-30.6-127.2-48.8 0-19.6 55.1-37.7 147.1-51.9"/>
				</g>
			</g>
		</g>
		<g id="&lt;Group&gt;">
			<path id="&lt;Path&gt;" class="s16" d="m3196 2127.1l119.1-228.6c0 0-167.6 60.7-119.1 228.6z"/>
			<path id="&lt;Path&gt;" class="s16" d="m3163 2064.8l29.8-120.5c0 0 53.2 109.1-7.4 166.5-60.7 57.4-22.4-46-22.4-46z"/>
			<path id="&lt;Path&gt;" class="s7" d="m3014.8 2461.4l10.3-7.7c24.2-17.9 53.2-27.8 83.2-30.2 13.6-1.1 27.3-3.9 40.8-8.5 82.6-28.4 129.9-117.8 106.6-202.1-8.5-30.8-25.1-57.1-46.7-77.4l18.7-55.4-39.4 11.8-25.9-36.2-18.1 42.2c-35.2-11-74.4-10.5-111.9 4.5-77.1 31-120 116-99.1 196.4 7.9 30.6 23.6 56.8 44.4 77.2 13.5 13.3 23.5 29.8 28 48.2z"/>
			<path id="&lt;Path&gt;" class="s18" d="m3209 2135.5c0 0 92.2 181.1-107 262.4"/>
			<path id="&lt;Path&gt;" class="s18" d="m3052.2 2141.5c-6.8 2.2-129.2 57.8-56.8 207.6"/>
			<path id="&lt;Path&gt;" class="s18" d="m3170.6 2138.7c19.7 88-55.2 191.8-114 239.5-49.9 40.5-41.8 83.2-41.8 83.2"/>
		</g>
		<g id="&lt;Group&gt;">
			<path id="&lt;Path&gt;" class="s16" d="m1612.8 665.2l43.6-367 59.7 22.2z"/>
			<path id="&lt;Path&gt;" class="s16" d="m1789 463l-149.3 174.9 101.1-209z"/>
			<g id="&lt;Group&gt;">
				<path id="&lt;Path&gt;" class="s19" d="m1726.4 655.4l-19.6 29.5-5.5 8.3-81.2 122.7-5.5 8.3-94.3 142.3c-11 16.8-37.2 6.5-33.9-13.3l11.9-71.3 1.6-9.8 28.4-171.3 1.7-9.9 18-108.3c3.3-19.9 24.2-31.5 42.8-23.8l121.5 50.5c18.1 7.5 24.9 29.7 14.1 46.1z"/>
				<path id="&lt;Path&gt;" class="s20" d="m1556.5 702l-3.7 8.9-24.5-10.1 1.7-9.9z"/>
				<path id="&lt;Path&gt;" class="s20" d="m1620.1 815.9l-5.5 8.3-26.3-11 3.7-9z"/>
				<path id="&lt;Path&gt;" class="s20" d="m1706.8 684.9l-5.5 8.3-22.5-9.4 3.8-9z"/>
				<path id="&lt;Path&gt;" class="s20" d="m1520.1 880.5l-3.7 9-18.1-7.6 1.6-9.8z"/>
			</g>
		</g>
		<g id="&lt;Group&gt;">
			<path id="&lt;Path&gt;" class="s0" d="m330.4 3326.2h3284.1v61.7h-3284.1z"/>
		</g>
		<path id="&lt;Path&gt;" class="s16" d="m2406.7 551.8l-131.3-31.4c-26.5-6.4-39.2-36.5-25.4-59.9l-18.1-24.1c-15-19.9-13.3-47.8 4-65.8 20.3-21.1 54.2-20.8 74.1 0.7l15.1 16.4c17.7-18.1 48.4-8.9 53.2 16z"/>
		<g id="&lt;Group&gt;">
			<path id="&lt;Path&gt;" class="s1" d="m556.4 1939.9c-13.2 0-23.8-10.7-23.8-23.9v-327.3c0-13.2 10.6-23.8 23.8-23.8 13.2 0 23.9 10.6 23.9 23.8v327.3c0 13.2-10.7 23.9-23.9 23.9z"/>
			<g id="&lt;Group&gt;">
				<path id="&lt;Path&gt;" class="s1" d="m448.3 2068.3c0-4.2 3.3-7.6 7.5-7.6h198.7c4.1 0 7.5 3.4 7.5 7.6v231.1c0 4.1-3.4 7.5-7.5 7.5h-198.7c-4.2 0-7.5-3.4-7.5-7.5z"/>
				<path id="&lt;Path&gt;" class="s1" d="m501.7 2258.9c-7.1 0-12.9-5.8-12.9-12.9v-117.3c0-7.1 5.8-12.9 12.9-12.9 7.1 0 12.9 5.8 12.9 12.9v117.3c0 7.1-5.8 12.9-12.9 12.9z"/>
				<path id="&lt;Path&gt;" class="s1" d="m556.1 2258.9c-7.1 0-12.9-5.8-12.9-12.9v-117.3c0-7.1 5.8-12.9 12.9-12.9 7.1 0 12.9 5.8 12.9 12.9v117.3c0 7.1-5.8 12.9-12.9 12.9z"/>
				<path id="&lt;Path&gt;" class="s1" d="m610.5 2258.9c-7.2 0-12.9-5.8-12.9-12.9v-117.3c0-7.1 5.7-12.9 12.9-12.9 7.1 0 12.9 5.8 12.9 12.9v117.3c0 7.1-5.8 12.9-12.9 12.9z"/>
			</g>
			<path id="&lt;Path&gt;" class="s1" d="m557.4 2059v-118.7"/>
		</g>
		<g id="&lt;Group&gt;">
			<g id="&lt;Group&gt;">
				<path id="&lt;Path&gt;" class="s1" d="m1140.9 1265.5v24.7c-15.9-2.9-32.2-4.5-49-4.5-17.4 0-34.4 1.7-50.9 4.9v-25.1c0-11.1 9-20.1 20.1-20.1h59.7c11.1 0 20.1 9 20.1 20.1z"/>
				<path id="&lt;Path&gt;" class="s1" d="m1119.6 1245.4h-58.3v-428.8c0-16.1 13.1-29.1 29.2-29.1 16 0 29.1 13 29.1 29.1z"/>
				<path id="&lt;Path&gt;" class="s1" d="m1359.3 1553.1c0 147.7-119.7 267.3-267.4 267.3-147.6 0-267.4-119.6-267.4-267.3 0-130.2 93.2-238.8 216.5-262.5 16.5-3.2 33.5-4.9 50.9-4.9 16.8 0 33.1 1.6 49 4.5 124.2 23 218.4 132 218.4 262.9z"/>
			</g>
			<path id="&lt;Path&gt;" class="s1" d="m1091.9 1715.1c-89.9 0-162.7-72.7-162.7-162.7 0-89.9 72.8-162.6 162.7-162.6 90 0 162.7 72.7 162.7 162.6 0 90-72.7 162.7-162.7 162.7z"/>
		</g>
		<g id="&lt;Group&gt;">
			<g id="&lt;Group&gt;">
				<path id="&lt;Path&gt;" class="s21" d="m2473.6 1683.6l48.1 43.7-61.9 19.7-61.9 19.8 13.9-63.5 13.8-63.4z"/>
			</g>
			<path id="&lt;Path&gt;" class="s5" d="m2986.7 3183.6l40.8 37-52.5 16.8-52.4 16.7 11.7-53.8 11.7-53.8z"/>
			<path id="&lt;Path&gt;" class="s5" d="m2771.4 289.6l69.6 63.3-89.6 28.7-89.7 28.7 20-92 20-92z"/>
			<path id="&lt;Path&gt;" class="s0" d="m2728.7 717.8c-19.5 0-35.2-15.7-35.2-35.1 0-19.4 15.7-35.1 35.2-35.1 19.4 0 35.1 15.7 35.1 35.1 0 19.4-15.7 35.1-35.1 35.1z"/>
			<path id="&lt;Path&gt;" class="s0" d="m211.7 1254.3c-19.5 0-35.2-15.7-35.2-35.1 0-19.5 15.7-35.2 35.2-35.2 19.4 0 35.1 15.7 35.1 35.2 0 19.4-15.7 35.1-35.1 35.1z"/>
			<path id="&lt;Path&gt;" class="s0" d="m492.4 2611.4c-19.4 0-35.1-15.7-35.1-35.2 0-19.4 15.7-35.1 35.1-35.1 19.4 0 35.1 15.7 35.1 35.1 0 19.5-15.7 35.2-35.1 35.2z"/>
			<path id="&lt;Path&gt;" class="s5" d="m456.2 897c-24.5 0-44.3-19.8-44.3-44.3 0-24.5 19.8-44.4 44.3-44.4 24.5 0 44.3 19.9 44.3 44.4 0 24.5-19.8 44.3-44.3 44.3z"/>
			<g id="&lt;Group&gt;">
				<path id="&lt;Path&gt;" class="s17" d="m3313.2 2464.8v109.1"/>
				<path id="&lt;Path&gt;" class="s17" d="m3367.3 2519.4h-109.1"/>
			</g>
			<g id="&lt;Group&gt;">
				<path id="&lt;Path&gt;" class="s22" d="m540.1 440.7v109.3"/>
				<path id="&lt;Path&gt;" class="s22" d="m236.3 418.6h-109.3"/>
			</g>
		</g>
		<g id="&lt;Clip Group&gt;" clip-path="url(#cp3)">
			<g id="&lt;Group&gt;">
				<g id="&lt;Group&gt;">
					<path id="&lt;Path&gt;" class="s1" d="m3760 854.6h-665.7v-879"/>
					<path id="&lt;Path&gt;" class="s1" d="m3104.5 732.8h643.7"/>
				</g>
				<path id="&lt;Path&gt;" class="s1" d="m3322 308.9c-30.5 0-55.1-24.7-55.1-55.2 0-30.5 24.6-55.1 55.1-55.1 30.5 0 55.2 24.6 55.2 55.1 0 30.5-24.7 55.2-55.2 55.2z"/>
			</g>
		</g>
	</g>
</svg>